<svg id="Layer_1" data-name="Layer 1" xmlns="http://www.w3.org/2000/svg" viewBox="0 0 2000 2000"><defs><style>.cls-1,.cls-4{font-size:449.92px;font-family:LeagueSpartan-Bold, League Spartan;font-weight:700;}.cls-1{fill:#292b2b;}.cls-2{fill:none;stroke:#ecf0f1;stroke-miterlimit:10;stroke-width:39.7px;}.cls-3,.cls-4{fill:#ecf0f1;}.cls-5{fill:#fa8231;}</style></defs><title>E-Cell Final Logos svg</title><text class="cls-1" transform="translate(-1353.48 1078.41)">CELL</text><line class="cls-2" x1="119.32" y1="1072.63" x2="358.7" y2="678.14"/><polygon class="cls-3" points="380.3 633.87 385.31 797.51 241.09 720.02 380.3 633.87"/><text class="cls-4" transform="translate(793.51 1078.41)">CELL</text><path class="cls-3" d="M878.2,1312.32H842.66v-156H878.2Z"/><path class="cls-3" d="M964.78,1312.32H929.24v-156h35.54Z"/><path class="cls-3" d="M996.92,1156.35h109.65v31.19h-37.06v124.78H1034V1187.55H996.92Z"/><path class="cls-3" d="M1259.88,1342.57s-33.08-39.89-33.08-105.3c0-67.3,35.73-109.27,35.73-109.27l21.74,9.26s-26.66,32.33-26.66,100c0,63.9,24,96,24,96Z"/><path class="cls-3" d="M1380.68,1156.35c26.85,0,48,10,48,39.7,0,14.37-6.24,26.66-19.47,33.46,19.47,3.4,33.27,14.18,33.27,39.32,0,25.71-18.72,43.48-51,43.48h-59.18v-156Zm-10,61.06c15.31,0,23.63-4.73,23.63-17.77,0-11.15-8.13-15.88-23.63-15.88h-2.84v33.65Zm8.32,67.49c16.83,0,26.09-5.1,26.09-17.39,0-14.37-9.26-19.47-26.09-19.47h-11.15v36.87Z"/><path class="cls-3" d="M1522.08,1312.32h-35.54v-156h35.54v62.2h50.29v-62.2h35.54v156h-35.54v-62.58h-50.29Z"/><path class="cls-3" d="M1765.6,1255.09c0,38.26-21,57.77-60.39,57.77s-60.39-19.51-60.39-57.77v-99.78h35.26v89.46c0,25.88,7.88,33.39,25.13,33.39s25.13-7.5,25.13-33.39v-89.46h35.26Z"/><path class="cls-3" d="M1814,1330.86s23.82-31.88,23.82-95.28c0-67.15-26.44-99.22-26.44-99.22l21.57-9.19s35.45,41.64,35.45,108.41c0,64.89-32.82,104.47-32.82,104.47Z"/><rect class="cls-5" x="112.34" y="1149.75" width="641.73" height="161.17" rx="16.4" ry="16.4"/><rect class="cls-5" x="528.26" y="681.84" width="225.81" height="161.17" rx="16.4" ry="16.4"/><rect class="cls-5" x="301.39" y="915.79" width="452.67" height="161.17" rx="16.4" ry="16.4"/></svg>